<svg xmlns="http://www.w3.org/2000/svg" viewBox="0 0 64 64"><g id="Layer_19" data-name="Layer 19"><path d="M49,16.47a1.48,1.48,0,0,0-1.1-.49H16.11a1.5,1.5,0,0,0-1.49,1.63L17.3,48.49a5.45,5.45,0,0,0,5.46,5H41.24a5.45,5.45,0,0,0,5.46-5l2.68-30.88A1.46,1.46,0,0,0,49,16.47ZM43.71,48.23a2.47,2.47,0,0,1-2.47,2.27H22.76a2.47,2.47,0,0,1-2.47-2.27L17.75,19h28.5Z" fill="#eb0b0b"/><path d="M25.83,13.5H38.17a1.5,1.5,0,0,0,0-3H25.83A1.5,1.5,0,0,0,25.83,13.5Z" fill="#eb0b0b"/><path d="M28,45a1.5,1.5,0,0,0,1.5-1.5V27.37a1.5,1.5,0,0,0-3,0V43.46A1.5,1.5,0,0,0,28,45Z" fill="#eb0b0b"/><path d="M36,45a1.5,1.5,0,0,0,1.5-1.5V27.37a1.5,1.5,0,0,0-3,0V43.46A1.5,1.5,0,0,0,36,45Z" fill="#eb0b0b"/></g></svg>